<svg xmlns="http://www.w3.org/2000/svg" xmlns:xlink="http://www.w3.org/1999/xlink" width="500" zoomAndPan="magnify" viewBox="0 0 375 374.999991" height="500" preserveAspectRatio="xMidYMid meet" version="1.0"><defs><g/><clipPath id="77119e6c6a"><path d="M 6 9 L 369 9 L 369 291.953125 L 6 291.953125 Z M 6 9 " clip-rule="nonzero"/></clipPath></defs><g fill="#ffffff" fill-opacity="1"><g transform="translate(86.856855, 320.148466)"><g><path d="M 15.015625 0 L 12.578125 -6.234375 L 4.71875 -6.234375 L 2.3125 0 L 0 0 L 7.75 -19.6875 L 9.671875 -19.6875 L 17.375 0 Z M 11.875 -8.28125 L 9.59375 -14.359375 C 9.289062 -15.128906 8.984375 -16.070312 8.671875 -17.1875 C 8.472656 -16.332031 8.191406 -15.390625 7.828125 -14.359375 L 5.53125 -8.28125 Z M 11.875 -8.28125 "/></g></g></g><g fill="#ffffff" fill-opacity="1"><g transform="translate(113.597902, 320.148466)"><g><path d="M 4.96875 -8.15625 L 4.96875 0 L 2.703125 0 L 2.703125 -19.609375 L 8.078125 -19.609375 C 10.484375 -19.609375 12.257812 -19.144531 13.40625 -18.21875 C 14.550781 -17.300781 15.125 -15.914062 15.125 -14.0625 C 15.125 -11.476562 13.8125 -9.726562 11.1875 -8.8125 L 16.515625 0 L 13.8125 0 L 9.0625 -8.15625 Z M 4.96875 -10.109375 L 8.09375 -10.109375 C 9.707031 -10.109375 10.890625 -10.425781 11.640625 -11.0625 C 12.390625 -11.707031 12.765625 -12.671875 12.765625 -13.953125 C 12.765625 -15.242188 12.378906 -16.175781 11.609375 -16.75 C 10.847656 -17.320312 9.625 -17.609375 7.9375 -17.609375 L 4.96875 -17.609375 Z M 4.96875 -10.109375 "/></g></g></g><g fill="#ffffff" fill-opacity="1"><g transform="translate(139.936747, 320.148466)"><g><path d="M 11.3125 -10.28125 L 17.984375 -10.28125 L 17.984375 -0.734375 C 16.953125 -0.398438 15.898438 -0.148438 14.828125 0.015625 C 13.753906 0.179688 12.507812 0.265625 11.09375 0.265625 C 8.125 0.265625 5.8125 -0.613281 4.15625 -2.375 C 2.5 -4.144531 1.671875 -6.617188 1.671875 -9.796875 C 1.671875 -11.835938 2.078125 -13.625 2.890625 -15.15625 C 3.710938 -16.695312 4.894531 -17.867188 6.4375 -18.671875 C 7.976562 -19.484375 9.78125 -19.890625 11.84375 -19.890625 C 13.9375 -19.890625 15.882812 -19.503906 17.6875 -18.734375 L 16.8125 -16.71875 C 15.039062 -17.476562 13.335938 -17.859375 11.703125 -17.859375 C 9.304688 -17.859375 7.4375 -17.144531 6.09375 -15.71875 C 4.757812 -14.300781 4.09375 -12.328125 4.09375 -9.796875 C 4.09375 -7.148438 4.738281 -5.144531 6.03125 -3.78125 C 7.320312 -2.414062 9.21875 -1.734375 11.71875 -1.734375 C 13.082031 -1.734375 14.410156 -1.890625 15.703125 -2.203125 L 15.703125 -8.234375 L 11.3125 -8.234375 Z M 11.3125 -10.28125 "/></g></g></g><g fill="#ffffff" fill-opacity="1"><g transform="translate(169.292116, 320.148466)"><g><path d="M 17.578125 0 L 15.296875 0 L 15.296875 -9.234375 L 4.96875 -9.234375 L 4.96875 0 L 2.703125 0 L 2.703125 -19.609375 L 4.96875 -19.609375 L 4.96875 -11.265625 L 15.296875 -11.265625 L 15.296875 -19.609375 L 17.578125 -19.609375 Z M 17.578125 0 "/></g></g></g><g fill="#ffffff" fill-opacity="1"><g transform="translate(198.915621, 320.148466)"><g><path d="M 7.6875 -9.796875 L 12.921875 -19.609375 L 15.390625 -19.609375 L 8.84375 -7.609375 L 8.84375 0 L 6.53125 0 L 6.53125 -7.5 L 0 -19.609375 L 2.5 -19.609375 Z M 7.6875 -9.796875 "/></g></g></g><g fill="#ffffff" fill-opacity="1"><g transform="translate(223.659062, 320.148466)"><g><path d="M 15.015625 0 L 12.578125 -6.234375 L 4.71875 -6.234375 L 2.3125 0 L 0 0 L 7.75 -19.6875 L 9.671875 -19.6875 L 17.375 0 Z M 11.875 -8.28125 L 9.59375 -14.359375 C 9.289062 -15.128906 8.984375 -16.070312 8.671875 -17.1875 C 8.472656 -16.332031 8.191406 -15.390625 7.828125 -14.359375 L 5.53125 -8.28125 Z M 11.875 -8.28125 "/></g></g></g><g fill="#ffffff" fill-opacity="1"><g transform="translate(250.400103, 320.148466)"><g><path d="M 18.015625 0 L 15.40625 0 L 4.6875 -16.453125 L 4.59375 -16.453125 C 4.726562 -14.523438 4.796875 -12.753906 4.796875 -11.140625 L 4.796875 0 L 2.703125 0 L 2.703125 -19.609375 L 5.265625 -19.609375 L 15.953125 -3.21875 L 16.0625 -3.21875 C 16.050781 -3.457031 16.015625 -4.234375 15.953125 -5.546875 C 15.890625 -6.859375 15.863281 -7.796875 15.875 -8.359375 L 15.875 -19.609375 L 18.015625 -19.609375 Z M 18.015625 0 "/></g></g></g><g fill="#ffffff" fill-opacity="1"><g transform="translate(280.466019, 320.148466)"><g><path d="M 2.703125 0 L 2.703125 -19.609375 L 4.96875 -19.609375 L 4.96875 0 Z M 2.703125 0 "/></g></g></g><g fill="#ffffff" fill-opacity="1"><g transform="translate(163.894849, 344.22988)"><g><path d="M 9.140625 0 L 7.65625 -3.796875 L 2.875 -3.796875 L 1.40625 0 L 0 0 L 4.71875 -11.984375 L 5.890625 -11.984375 L 10.578125 0 Z M 7.21875 -5.046875 L 5.84375 -8.75 C 5.65625 -9.207031 5.46875 -9.78125 5.28125 -10.46875 C 5.164062 -9.945312 4.992188 -9.375 4.765625 -8.75 L 3.359375 -5.046875 Z M 7.21875 -5.046875 "/></g></g></g><g fill="#ffffff" fill-opacity="1"><g transform="translate(186.106946, 344.22988)"><g><path d="M 1.640625 0 L 1.640625 -11.9375 L 3.03125 -11.9375 L 3.03125 -1.25 L 8.296875 -1.25 L 8.296875 0 Z M 1.640625 0 "/></g></g></g><g fill="#ffffff" fill-opacity="1"><g transform="translate(206.417847, 344.22988)"><g><path d="M 1.640625 0 L 1.640625 -11.9375 L 3.03125 -11.9375 L 3.03125 0 Z M 1.640625 0 "/></g></g></g><g clip-path="url(#77119e6c6a)"><path fill="#ffffff" d="M 368.261719 286.316406 L 238.011719 11.199219 C 236.8125 8.660156 232.644531 8.660156 231.449219 11.199219 L 187.316406 104.355469 L 143.1875 11.164062 C 142.570312 9.894531 141.300781 9.09375 139.921875 9.09375 C 138.507812 9.09375 137.238281 9.894531 136.660156 11.164062 L 6.371094 286.351562 C 5.5 288.164062 6.300781 290.339844 8.113281 291.175781 C 8.621094 291.429688 9.128906 291.535156 9.671875 291.535156 C 11.011719 291.535156 12.320312 290.773438 12.933594 289.46875 L 56.121094 198.164062 C 61.925781 198.164062 98.621094 198.273438 142.824219 198.34375 L 101.160156 286.351562 C 100.289062 288.164062 101.085938 290.304688 102.898438 291.175781 C 104.714844 292.042969 106.851562 291.28125 107.722656 289.433594 L 150.839844 198.34375 C 162.695312 198.378906 174.953125 198.378906 187.207031 198.378906 C 200.734375 198.378906 212.882812 198.417969 223.796875 198.417969 L 266.910156 289.433594 C 267.527344 290.738281 268.832031 291.5 270.175781 291.5 C 270.683594 291.5 271.226562 291.390625 271.734375 291.136719 C 273.546875 290.265625 274.308594 288.128906 273.472656 286.316406 L 231.847656 198.417969 C 239.097656 198.417969 245.769531 198.417969 251.898438 198.417969 C 295.414062 198.417969 311.839844 198.234375 318.257812 197.582031 L 361.734375 289.359375 C 362.351562 290.667969 363.65625 291.429688 365 291.429688 C 365.507812 291.429688 366.050781 291.320312 366.558594 291.066406 C 368.371094 290.265625 369.132812 288.128906 368.261719 286.316406 Z M 59.566406 190.910156 L 139.921875 21.171875 L 183.292969 112.839844 L 146.269531 191.09375 C 114.9375 191.019531 84.40625 190.945312 59.566406 190.910156 Z M 228.402344 191.164062 L 213.0625 158.820312 C 212.191406 157.007812 210.015625 156.246094 208.238281 157.078125 C 206.425781 157.949219 205.664062 160.089844 206.5 161.902344 L 220.351562 191.164062 C 199.355469 191.164062 176.730469 191.128906 154.246094 191.09375 L 234.710938 21.207031 L 315.101562 191.019531 C 304.117188 191.164062 270.175781 191.199219 228.402344 191.164062 Z M 228.402344 191.164062 " fill-opacity="1" fill-rule="nonzero"/></g></svg>