<svg xmlns="http://www.w3.org/2000/svg" xmlns:xlink="http://www.w3.org/1999/xlink" width="500" zoomAndPan="magnify" viewBox="0 0 375 374.999991" height="500" preserveAspectRatio="xMidYMid meet" version="1.0"><defs><g/><clipPath id="29e0e217cf"><path d="M 6 9 L 369 9 L 369 291.953125 L 6 291.953125 Z M 6 9 " clip-rule="nonzero"/></clipPath></defs><g fill="#000000" fill-opacity="1"><g transform="translate(86.856855, 320.148435)"><g><path d="M 15.015625 0 L 12.578125 -6.234375 L 4.71875 -6.234375 L 2.3125 0 L 0 0 L 7.75 -19.6875 L 9.671875 -19.6875 L 17.375 0 Z M 11.875 -8.28125 L 9.59375 -14.359375 C 9.289062 -15.128906 8.984375 -16.070312 8.671875 -17.1875 C 8.472656 -16.332031 8.191406 -15.390625 7.828125 -14.359375 L 5.53125 -8.28125 Z M 11.875 -8.28125 "/></g></g></g><g fill="#000000" fill-opacity="1"><g transform="translate(113.597902, 320.148435)"><g><path d="M 4.96875 -8.15625 L 4.96875 0 L 2.703125 0 L 2.703125 -19.609375 L 8.078125 -19.609375 C 10.484375 -19.609375 12.257812 -19.144531 13.40625 -18.21875 C 14.550781 -17.300781 15.125 -15.914062 15.125 -14.0625 C 15.125 -11.476562 13.8125 -9.726562 11.1875 -8.8125 L 16.515625 0 L 13.8125 0 L 9.0625 -8.15625 Z M 4.96875 -10.109375 L 8.09375 -10.109375 C 9.707031 -10.109375 10.890625 -10.425781 11.640625 -11.0625 C 12.390625 -11.707031 12.765625 -12.671875 12.765625 -13.953125 C 12.765625 -15.242188 12.378906 -16.175781 11.609375 -16.75 C 10.847656 -17.320312 9.625 -17.609375 7.9375 -17.609375 L 4.96875 -17.609375 Z M 4.96875 -10.109375 "/></g></g></g><g fill="#000000" fill-opacity="1"><g transform="translate(139.936747, 320.148435)"><g><path d="M 11.3125 -10.28125 L 17.984375 -10.28125 L 17.984375 -0.734375 C 16.953125 -0.398438 15.898438 -0.148438 14.828125 0.015625 C 13.753906 0.179688 12.507812 0.265625 11.09375 0.265625 C 8.125 0.265625 5.8125 -0.613281 4.15625 -2.375 C 2.5 -4.144531 1.671875 -6.617188 1.671875 -9.796875 C 1.671875 -11.835938 2.078125 -13.625 2.890625 -15.15625 C 3.710938 -16.695312 4.894531 -17.867188 6.4375 -18.671875 C 7.976562 -19.484375 9.78125 -19.890625 11.84375 -19.890625 C 13.9375 -19.890625 15.882812 -19.503906 17.6875 -18.734375 L 16.8125 -16.71875 C 15.039062 -17.476562 13.335938 -17.859375 11.703125 -17.859375 C 9.304688 -17.859375 7.4375 -17.144531 6.09375 -15.71875 C 4.757812 -14.300781 4.09375 -12.328125 4.09375 -9.796875 C 4.09375 -7.148438 4.738281 -5.144531 6.03125 -3.78125 C 7.320312 -2.414062 9.21875 -1.734375 11.71875 -1.734375 C 13.082031 -1.734375 14.410156 -1.890625 15.703125 -2.203125 L 15.703125 -8.234375 L 11.3125 -8.234375 Z M 11.3125 -10.28125 "/></g></g></g><g fill="#000000" fill-opacity="1"><g transform="translate(169.292116, 320.148435)"><g><path d="M 17.578125 0 L 15.296875 0 L 15.296875 -9.234375 L 4.96875 -9.234375 L 4.96875 0 L 2.703125 0 L 2.703125 -19.609375 L 4.96875 -19.609375 L 4.96875 -11.265625 L 15.296875 -11.265625 L 15.296875 -19.609375 L 17.578125 -19.609375 Z M 17.578125 0 "/></g></g></g><g fill="#000000" fill-opacity="1"><g transform="translate(198.915621, 320.148435)"><g><path d="M 7.6875 -9.796875 L 12.921875 -19.609375 L 15.390625 -19.609375 L 8.84375 -7.609375 L 8.84375 0 L 6.53125 0 L 6.53125 -7.5 L 0 -19.609375 L 2.5 -19.609375 Z M 7.6875 -9.796875 "/></g></g></g><g fill="#000000" fill-opacity="1"><g transform="translate(223.659062, 320.148435)"><g><path d="M 15.015625 0 L 12.578125 -6.234375 L 4.71875 -6.234375 L 2.3125 0 L 0 0 L 7.75 -19.6875 L 9.671875 -19.6875 L 17.375 0 Z M 11.875 -8.28125 L 9.59375 -14.359375 C 9.289062 -15.128906 8.984375 -16.070312 8.671875 -17.1875 C 8.472656 -16.332031 8.191406 -15.390625 7.828125 -14.359375 L 5.53125 -8.28125 Z M 11.875 -8.28125 "/></g></g></g><g fill="#000000" fill-opacity="1"><g transform="translate(250.400103, 320.148435)"><g><path d="M 18.015625 0 L 15.40625 0 L 4.6875 -16.453125 L 4.59375 -16.453125 C 4.726562 -14.523438 4.796875 -12.753906 4.796875 -11.140625 L 4.796875 0 L 2.703125 0 L 2.703125 -19.609375 L 5.265625 -19.609375 L 15.953125 -3.21875 L 16.0625 -3.21875 C 16.050781 -3.457031 16.015625 -4.234375 15.953125 -5.546875 C 15.890625 -6.859375 15.863281 -7.796875 15.875 -8.359375 L 15.875 -19.609375 L 18.015625 -19.609375 Z M 18.015625 0 "/></g></g></g><g fill="#000000" fill-opacity="1"><g transform="translate(280.466019, 320.148435)"><g><path d="M 2.703125 0 L 2.703125 -19.609375 L 4.96875 -19.609375 L 4.96875 0 Z M 2.703125 0 "/></g></g></g><g fill="#000000" fill-opacity="1"><g transform="translate(163.894849, 344.22988)"><g><path d="M 9.140625 0 L 7.65625 -3.796875 L 2.875 -3.796875 L 1.40625 0 L 0 0 L 4.71875 -11.984375 L 5.890625 -11.984375 L 10.578125 0 Z M 7.21875 -5.046875 L 5.84375 -8.75 C 5.65625 -9.207031 5.46875 -9.78125 5.28125 -10.46875 C 5.164062 -9.945312 4.992188 -9.375 4.765625 -8.75 L 3.359375 -5.046875 Z M 7.21875 -5.046875 "/></g></g></g><g fill="#000000" fill-opacity="1"><g transform="translate(186.106946, 344.22988)"><g><path d="M 1.640625 0 L 1.640625 -11.9375 L 3.03125 -11.9375 L 3.03125 -1.25 L 8.296875 -1.25 L 8.296875 0 Z M 1.640625 0 "/></g></g></g><g fill="#000000" fill-opacity="1"><g transform="translate(206.417847, 344.22988)"><g><path d="M 1.640625 0 L 1.640625 -11.9375 L 3.03125 -11.9375 L 3.03125 0 Z M 1.640625 0 "/></g></g></g><g clip-path="url(#29e0e217cf)"><path fill="#000000" d="M 368.308594 286.132812 L 238.039062 11.195312 C 236.84375 8.660156 232.671875 8.660156 231.476562 11.195312 L 187.339844 104.292969 L 143.203125 11.160156 C 142.589844 9.890625 141.320312 9.09375 139.941406 9.09375 C 138.527344 9.09375 137.257812 9.890625 136.675781 11.160156 L 6.371094 286.167969 C 5.5 287.980469 6.300781 290.152344 8.113281 290.988281 C 8.621094 291.242188 9.128906 291.347656 9.671875 291.347656 C 11.015625 291.347656 12.320312 290.589844 12.9375 289.285156 L 56.128906 198.039062 C 61.933594 198.039062 98.632812 198.148438 142.84375 198.21875 L 101.171875 286.167969 C 100.300781 287.980469 101.097656 290.117188 102.914062 290.988281 C 104.726562 291.855469 106.867188 291.097656 107.734375 289.246094 L 150.855469 198.21875 C 162.714844 198.253906 174.972656 198.253906 187.230469 198.253906 C 200.757812 198.253906 212.910156 198.292969 223.824219 198.292969 L 266.945312 289.246094 C 267.5625 290.550781 268.867188 291.3125 270.207031 291.3125 C 270.714844 291.3125 271.261719 291.203125 271.769531 290.949219 C 273.582031 290.082031 274.34375 287.941406 273.507812 286.132812 L 231.875 198.292969 C 239.128906 198.292969 245.800781 198.292969 251.929688 198.292969 C 295.449219 198.292969 311.878906 198.109375 318.296875 197.457031 L 361.78125 289.175781 C 362.398438 290.480469 363.703125 291.242188 365.042969 291.242188 C 365.550781 291.242188 366.097656 291.132812 366.605469 290.878906 C 368.417969 290.082031 369.179688 287.941406 368.308594 286.132812 Z M 59.574219 190.789062 L 139.941406 21.164062 L 183.316406 112.769531 L 146.289062 190.972656 C 114.953125 190.898438 84.417969 190.828125 59.574219 190.789062 Z M 228.429688 191.042969 L 213.089844 158.71875 C 212.21875 156.90625 210.042969 156.148438 208.265625 156.980469 C 206.453125 157.851562 205.691406 159.988281 206.523438 161.800781 L 220.378906 191.042969 C 199.382812 191.042969 176.75 191.007812 154.265625 190.972656 L 234.742188 21.199219 L 315.144531 190.898438 C 304.152344 191.042969 270.207031 191.082031 228.429688 191.042969 Z M 228.429688 191.042969 " fill-opacity="1" fill-rule="nonzero"/></g></svg>